/* XPM */
static char * C:\Users\Jonna\dev\mag\share\pixmaps\bitcoin32_xpm[] = {
"32 32 245 2",
"  	c None",
". 	c #A1A2A3",
"+ 	c #A3A4A4",
"@ 	c #C0C1C1",
"# 	c #757676",
"$ 	c #535454",
"% 	c #545554",
"& 	c #757576",
"* 	c #8B8C8C",
"= 	c #545656",
"- 	c #5F6060",
"; 	c #727373",
"> 	c #606160",
", 	c #555656",
"' 	c #9B9C9C",
") 	c #5C5D5D",
"! 	c #595A5A",
"~ 	c #707171",
"{ 	c #717272",
"] 	c #5B5C5D",
"^ 	c #9C9C9D",
"/ 	c #B5B5B6",
"( 	c #6E6F6F",
"_ 	c #505150",
": 	c #686969",
"< 	c #737474",
"[ 	c #4F5050",
"} 	c #B4B5B5",
"| 	c #7B7B7C",
"1 	c #535453",
"2 	c #666767",
"3 	c #646565",
"4 	c #5D5E5E",
"5 	c #626363",
"6 	c #676969",
"7 	c #515251",
"8 	c #525453",
"9 	c #7B7C7C",
"0 	c #CFD0D1",
"a 	c #505151",
"b 	c #5A5D60",
"c 	c #7B7C7D",
"d 	c #D6D7D7",
"e 	c #D9DADA",
"f 	c #818283",
"g 	c #636464",
"h 	c #D2D3D3",
"i 	c #DCDDDD",
"j 	c #848585",
"k 	c #605F5F",
"l 	c #5B5C5B",
"m 	c #585959",
"n 	c #B2B3B4",
"o 	c #C3C4C4",
"p 	c #545555",
"q 	c #666665",
"r 	c #A6A5A0",
"s 	c #FFFFFF",
"t 	c #B6B7B7",
"u 	c #555655",
"v 	c #AFAFAF",
"w 	c #FBFCFD",
"x 	c #ABAEAF",
"y 	c #656767",
"z 	c #9E9FA0",
"A 	c #C8C9CA",
"B 	c #58595A",
"C 	c #686A6A",
"D 	c #DFD1AE",
"E 	c #FCF1D7",
"F 	c #F7F9FA",
"G 	c #FCFFFF",
"H 	c #F1F1F2",
"I 	c #9A9B9B",
"J 	c #939495",
"K 	c #EAEAEB",
"L 	c #FAFAFC",
"M 	c #D2DFDF",
"N 	c #AEC2C2",
"O 	c #6D6F70",
"P 	c #616161",
"Q 	c #A7A8A9",
"R 	c #6B6D6F",
"S 	c #CBBD9B",
"T 	c #E3CE9B",
"U 	c #DECFAB",
"V 	c #EEE8D9",
"W 	c #FAFDFF",
"X 	c #FBFFFF",
"Y 	c #D8E1E1",
"Z 	c #A6BAB9",
"` 	c #90ACAA",
" .	c #97ABAB",
"..	c #717273",
"+.	c #626262",
"@.	c #6A6C6E",
"#.	c #CCBF9F",
"$.	c #E8D8AE",
"%.	c #DAC89D",
"&.	c #D7C496",
"*.	c #E2D4B4",
"=.	c #F2F0E7",
"-.	c #E7ECED",
";.	c #B1C2C1",
">.	c #8EA7A6",
",.	c #95ACAB",
"'.	c #A4BBBA",
").	c #9DB0AF",
"!.	c #707172",
"~.	c #E8D7AD",
"{.	c #DECEA8",
"].	c #DFCFA8",
"^.	c #D8C599",
"/.	c #D9C79C",
"(.	c #E6DCC2",
"_.	c #FBFAF6",
":.	c #F3F7FA",
"<.	c #C0CECE",
"[.	c #96ADAC",
"}.	c #90A8A7",
"|.	c #A1B6B5",
"1.	c #A3BAB9",
"2.	c #DCCCA7",
"3.	c #DDCEA8",
"4.	c #E9D8AF",
"5.	c #E2D0A7",
"6.	c #D8C394",
"7.	c #E1D1AC",
"8.	c #A8BABA",
"9.	c #89A4A5",
"0.	c #9EB4B3",
"a.	c #A9C0BF",
"b.	c #A3B8B7",
"c.	c #9FB3B2",
"d.	c #EAD8AD",
"e.	c #DDCDA8",
"f.	c #BBAD91",
"g.	c #C2B597",
"h.	c #E6D5AC",
"i.	c #F6E1B2",
"j.	c #DACAA2",
"k.	c #9EB1AD",
"l.	c #A4C0C2",
"m.	c #A7BFBE",
"n.	c #92A2A1",
"o.	c #868E8D",
"p.	c #9FB2B1",
"q.	c #A5BCBB",
"r.	c #E0D0A9",
"s.	c #BAAB8C",
"t.	c #8B8476",
"u.	c #7B7B78",
"v.	c #C6B899",
"w.	c #F0DEB3",
"x.	c #B3C7C2",
"y.	c #92A7A9",
"z.	c #7A7F7F",
"A.	c #6F706F",
"B.	c #7D8281",
"C.	c #A2B6B5",
"D.	c #DFCFA9",
"E.	c #C0B190",
"F.	c #9A917E",
"G.	c #565C65",
"H.	c #5E6167",
"I.	c #999689",
"J.	c #8E948F",
"K.	c #686769",
"L.	c #656263",
"M.	c #777A79",
"N.	c #828B8A",
"O.	c #A1B5B4",
"P.	c #C7C8C9",
"Q.	c #575859",
"R.	c #696C6E",
"S.	c #DDCDA7",
"T.	c #F3DFB1",
"U.	c #BFB090",
"V.	c #9B927E",
"W.	c #696C6F",
"X.	c #6C6E70",
"Y.	c #5F6268",
"Z.	c #666465",
"`.	c #6F6F6F",
" +	c #6F6F70",
".+	c #777B7A",
"++	c #828A89",
"@+	c #A0B4B3",
"#+	c #A8C0BF",
"$+	c #A5BBBA",
"%+	c #707273",
"&+	c #A6A7A8",
"*+	c #C0C1C2",
"=+	c #444545",
"-+	c #66686C",
";+	c #A09A8A",
">+	c #F4E1B5",
",+	c #C9B895",
"'+	c #A09580",
")+	c #666A6D",
"!+	c #6F7071",
"~+	c #6E6E6F",
"{+	c #787D7B",
"]+	c #848D8B",
"^+	c #AAC1C0",
"/+	c #8B9695",
"(+	c #6C6C6C",
"_+	c #4F4F4F",
":+	c #9B9C9D",
"<+	c #909091",
"[+	c #494D54",
"}+	c #7B7B77",
"|+	c #C8BC9E",
"1+	c #B4A88E",
"2+	c #797773",
"3+	c #6B6D70",
"4+	c #6F7070",
"5+	c #707272",
"6+	c #818888",
"7+	c #99A9A8",
"8+	c #797E7E",
"9+	c #555252",
"0+	c #555555",
"a+	c #939494",
"b+	c #C6C7C7",
"c+	c #7A7B7B",
"d+	c #45484D",
"e+	c #5B5E61",
"f+	c #676A6E",
"g+	c #707271",
"h+	c #616060",
"i+	c #4D4B4B",
"j+	c #797A7A",
"k+	c #B4B4B4",
"l+	c #636566",
"m+	c #4F5152",
"n+	c #6C6D6D",
"o+	c #525352",
"p+	c #656666",
"q+	c #5E5F5F",
"r+	c #999A9A",
"s+	c #838485",
"t+	c #696A6A",
"u+	c #BFBFC0",
"v+	c #BEBFBF",
"                                                                ",
"                                                                ",
"                                                                ",
"                                                                ",
"                              . +                               ",
"                          @ # $ % & @                           ",
"                        * = - ; ; > , *                         ",
"                    ' ) ! ~ { ~ ~ { ~ ! ] ^                     ",
"                / ( _ : < ~ ~ ~ ~ ~ ~ < : [ ( }                 ",
"              | $ 1 2 3 4 { { ~ ~ { ; - 5 6 7 8 9               ",
"          0 a ) b c d e f $ g ; ; 2 8 9 h i j k l m n           ",
"          o p q r s s s s t ( u u : v w s s s x y - z           ",
"          A B C D E F G s s H I J K s s s L M N O P Q           ",
"          A B R S T U V W X s s s s s s Y Z `  ...+.Q           ",
"          A B @.#.$.%.&.*.=.G X s s -.;.>.,.'.).!.+.Q           ",
"          A B @.#.~.{.].^./.(._.:.<.[.}.|.|.1.).!.+.Q           ",
"          A B @.#.~.2.3.4.5.6.7.8.9.0.a.b.c.1.).!.+.Q           ",
"          A B @.#.d.e.f.g.h.i.j.k.l.m.n.o.p.q.).!.+.Q           ",
"          A B @.#.d.r.s.t.u.v.w.x.y.z.A.B.C.q.).!.+.Q           ",
"          A B @.#.d.D.E.F.G.H.I.J.K.L.M.N.O.q.).!.+.Q           ",
"          P.Q.R.S.T.e.U.V.W.X.Y.Z.`. +.+++@+#+$+%+P &+          ",
"          *+=+-+;+d.>+,+'+)+!+~ ~ ~ ~+{+]+^+#+/+(+_+:+          ",
"            <+, [+}+|+1+2+3+~ ~ ~ ~ 4+5+6+7+8+9+0+a+            ",
"              b+c+d+e+%+f+{ ~ ~ ~ ~ g+~+< h+i+j+b+              ",
"                  k+l+m+n+; ~ ~ ~ ~ ; n+o+p+}                   ",
"                      I q+! ~ { { ~ ! q+r+                      ",
"                          s+% t+t+$ j                           ",
"                            u+4+4+v+                            ",
"                                                                ",
"                                                                ",
"                                                                ",
"                                                                "};
