/* XPM */
static char * C:\Users\Jonna\dev\mag\share\pixmaps\bitcoin16_xpm[] = {
"16 16 101 2",
"  	c None",
". 	c #FFFFFF",
"+ 	c #CCCDCD",
"@ 	c #9C9C9C",
"# 	c #F3F3F3",
"$ 	c #E9E9E9",
"% 	c #868787",
"& 	c #565757",
"* 	c #545555",
"= 	c #5F6060",
"- 	c #B8B8B8",
"; 	c #FBFBFB",
"> 	c #F9F9F9",
", 	c #9FA0A1",
"' 	c #4E5050",
") 	c #4C4D4D",
"! 	c #646565",
"~ 	c #747575",
"{ 	c #555656",
"] 	c #494B4B",
"^ 	c #616161",
"/ 	c #D7D7D7",
"( 	c #696A69",
"_ 	c #6B6C6C",
": 	c #E0E4EB",
"< 	c #CDCFD2",
"[ 	c #6D6D6E",
"} 	c #505151",
"| 	c #8F9091",
"1 	c #EEEBEC",
"2 	c #C8C7C9",
"3 	c #575959",
"4 	c #65676B",
"5 	c #BAB098",
"6 	c #FFFFE8",
"7 	c #ECF1F9",
"8 	c #CDCDCF",
"9 	c #FDFFFF",
"0 	c #CDDFDF",
"a 	c #808787",
"b 	c #74777E",
"c 	c #AAA085",
"d 	c #EED7A0",
"e 	c #E7D7B1",
"f 	c #FFFDF0",
"g 	c #CCDBDB",
"h 	c #9BB5B4",
"i 	c #94AFAE",
"j 	c #838988",
"k 	c #73767C",
"l 	c #AFA58D",
"m 	c #EAD8AE",
"n 	c #CCBA93",
"o 	c #F3D9A5",
"p 	c #C4D0C1",
"q 	c #86A5AA",
"r 	c #92A4A3",
"s 	c #A7BDBC",
"t 	c #848989",
"u 	c #707379",
"v 	c #BCB194",
"w 	c #F3DEB0",
"x 	c #8F877B",
"y 	c #969081",
"z 	c #A0A599",
"A 	c #6D7377",
"B 	c #828A89",
"C 	c #AEC8C7",
"D 	c #868C8D",
"E 	c #5A5D63",
"F 	c #958D79",
"G 	c #FFE9B7",
"H 	c #9C9381",
"I 	c #515863",
"J 	c #636264",
"K 	c #676261",
"L 	c #909D9C",
"M 	c #A7C0BF",
"N 	c #636767",
"O 	c #E4E5E6",
"P 	c #77787A",
"Q 	c #757063",
"R 	c #78756E",
"S 	c #6D6F71",
"T 	c #707171",
"U 	c #6E6E6F",
"V 	c #666B6B",
"W 	c #656A6A",
"X 	c #B2B2B2",
"Y 	c #FEFEFE",
"Z 	c #C0C3C7",
"` 	c #5E6164",
" .	c #5C5D5C",
"..	c #686968",
"+.	c #545656",
"@.	c #888787",
"#.	c #EAEAEA",
"$.	c #F9F9FA",
"%.	c #A5A6A7",
"&.	c #717272",
"*.	c #D9D9DA",
"                                ",
"                                ",
"            . + @ #             ",
"          $ % & * = - ;         ",
"      > , ' ) ! ~ { ] ^ /       ",
"      ( _ : < [ } | 1 2 3       ",
"      4 5 6 . 7 8 . 9 0 a       ",
"      b c d e f . g h i j       ",
"      k l m n o p q r s t       ",
"      u v w x y z A B C D       ",
"      E F G H I J K L M N       ",
"      O P Q R S T U V W X       ",
"        Y Z `  ...+.@.#.        ",
"            $.%.&.*..           ",
"                                ",
"                                "};
