/* XPM */
static char * C:\Users\Jonna\dev\mag\share\pixmaps\bitcoin64_xpm[] = {
"48 48 353 2",
"  	c None",
". 	c #B6B7B9",
"+ 	c #B7B8B9",
"@ 	c #878889",
"# 	c #515252",
"$ 	c #525353",
"% 	c #9B9C9C",
"& 	c #5D5E5E",
"* 	c #575858",
"= 	c #717272",
"- 	c #5D5E5F",
"; 	c #9B9C9B",
"> 	c #B2B3B3",
", 	c #686969",
"' 	c #555656",
") 	c #6A6B6B",
"! 	c #727373",
"~ 	c #707171",
"{ 	c #6B6C6B",
"] 	c #545655",
"^ 	c #696A6A",
"/ 	c #B3B3B4",
"( 	c #CACACB",
"_ 	c #797A7A",
": 	c #666766",
"< 	c #7A7B7B",
"[ 	c #919292",
"} 	c #575959",
"| 	c #5C5D5D",
"1 	c #929393",
"2 	c #A2A2A3",
"3 	c #606161",
"4 	c #6D6E6E",
"5 	c #6E6F6F",
"6 	c #5F6060",
"7 	c #A2A3A3",
"8 	c #BABBBC",
"9 	c #6E6F70",
"0 	c #6C6D6D",
"a 	c #BBBCBC",
"b 	c #D7D8D9",
"c 	c #838484",
"d 	c #545555",
"e 	c #616262",
"f 	c #747575",
"g 	c #5C5D5C",
"h 	c #5B5C5C",
"i 	c #717273",
"j 	c #636464",
"k 	c #5C5E5D",
"l 	c #757676",
"m 	c #828383",
"n 	c #D7D7D8",
"o 	c #B9BABB",
"p 	c #5A5B5B",
"q 	c #595A5A",
"r 	c #9FA0A0",
"s 	c #D6D6D6",
"t 	c #A6A7A7",
"u 	c #585959",
"v 	c #99999A",
"w 	c #D8D9D9",
"x 	c #AEAFAF",
"y 	c #B2B3B4",
"z 	c #999A9B",
"A 	c #707070",
"B 	c #5D6064",
"C 	c #838486",
"D 	c #D1D1D2",
"E 	c #FFFFFF",
"F 	c #D5D6D6",
"G 	c #868787",
"H 	c #5E5F5F",
"I 	c #636463",
"J 	c #535454",
"K 	c #7C7D7D",
"L 	c #CBCCCC",
"M 	c #DDDEDF",
"N 	c #8F8F90",
"O 	c #646363",
"P 	c #6E6E6E",
"Q 	c #8F9091",
"R 	c #A5A6A7",
"S 	c #A5A49E",
"T 	c #F9FAFD",
"U 	c #F6F7F9",
"V 	c #F8FAFC",
"W 	c #C0C1C1",
"X 	c #777878",
"Y 	c #6D6E6D",
"Z 	c #B3B4B5",
"` 	c #FCFDFE",
" .	c #FBFCFE",
"..	c #F7F8FB",
"+.	c #AFB3B4",
"@.	c #636564",
"#.	c #9C9D9E",
"$.	c #6F7070",
"%.	c #616467",
"&.	c #CCBF9F",
"*.	c #FDEFCE",
"=.	c #F4F3EF",
"-.	c #FDFFFF",
";.	c #F9FCFF",
">.	c #F7F7F9",
",.	c #FEFFFF",
"'.	c #FCFCFD",
").	c #AFAFAF",
"!.	c #A3A3A4",
"~.	c #F1F2F3",
"{.	c #FDFDFF",
"].	c #F1F3F4",
"^.	c #C7D7D7",
"/.	c #A2B7B6",
"(.	c #6D6F6F",
"_.	c #6D6D6D",
":.	c #63676B",
"<.	c #BEB296",
"[.	c #EAD39F",
"}.	c #DBC9A0",
"|.	c #E9E0CB",
"1.	c #F8FAFE",
"2.	c #DADBDD",
"3.	c #CFD0D2",
"4.	c #F7F8FA",
"5.	c #FAFAFD",
"6.	c #FCFCFE",
"7.	c #CBD6D6",
"8.	c #9CB2B1",
"9.	c #93AEAC",
"0.	c #96AAA9",
"a.	c #63666A",
"b.	c #BEB398",
"c.	c #EEDCB0",
"d.	c #DBCAA1",
"e.	c #D7C395",
"f.	c #DECEAA",
"g.	c #EDE8DA",
"h.	c #FBFFFF",
"i.	c #FCFFFF",
"j.	c #F8F9FB",
"k.	c #DAE2E3",
"l.	c #A7BAB9",
"m.	c #8CA6A5",
"n.	c #98AFAE",
"o.	c #A7BDBC",
"p.	c #99ACAB",
"q.	c #EEDBAF",
"r.	c #DDCDA7",
"s.	c #DDCEA8",
"t.	c #DAC89D",
"u.	c #D7C496",
"v.	c #E2D5B6",
"w.	c #F2F1E9",
"x.	c #FAFDFF",
"y.	c #F7F7FA",
"z.	c #F6F8FA",
"A.	c #E9EEEE",
"B.	c #B4C5C4",
"C.	c #8FA8A6",
"D.	c #94ACAA",
"E.	c #A1B6B5",
"F.	c #A1B5B4",
"G.	c #A5BCBB",
"H.	c #DDCDA8",
"I.	c #D8C598",
"J.	c #E7DDC4",
"K.	c #F5F5F3",
"L.	c #F7FAFF",
"M.	c #FCFBFD",
"N.	c #F4F6F7",
"O.	c #C4D1D1",
"P.	c #97AEAD",
"Q.	c #9FB4B3",
"R.	c #A0B5B4",
"S.	c #DCCBA4",
"T.	c #DCCBA3",
"U.	c #EBE4D1",
"V.	c #FDFEFF",
"W.	c #D1DBDA",
"X.	c #9EB4B3",
"Y.	c #8DA6A4",
"Z.	c #9BB1B0",
"`.	c #A2B6B5",
" +	c #DCCCA6",
".+	c #E0D0A9",
"++	c #E4D3AB",
"@+	c #D9C495",
"#+	c #E8D9B8",
"$+	c #B7C6C5",
"%+	c #8AA6A7",
"&+	c #A4BBBA",
"*+	c #A2B9B8",
"=+	c #E1D1A9",
"-+	c #D2C3A1",
";+	c #CFC19F",
">+	c #E8D7AF",
",+	c #E9D7AD",
"'+	c #DCCDA7",
")+	c #DFCEA7",
"!+	c #DBC89D",
"~+	c #A1B1A9",
"{+	c #98B2B5",
"]+	c #A9C1C0",
"^+	c #9AABAB",
"/+	c #9BABAA",
"(+	c #E5D5AD",
"_+	c #CABC9C",
":+	c #A59981",
"<+	c #BDB093",
"[+	c #D3C5A3",
"}+	c #F3E0B2",
"|+	c #E8D6AC",
"1+	c #DDCCA5",
"2+	c #AAB9B3",
"3+	c #98B1B4",
"4+	c #A3B9B8",
"5+	c #AAC4C3",
"6+	c #8F9B9A",
"7+	c #767A79",
"8+	c #93A0A0",
"9+	c #A7BEBD",
"0+	c #E4D4AC",
"a+	c #D0C1A0",
"b+	c #AD9F84",
"c+	c #A0957F",
"d+	c #9E9889",
"e+	c #F8E3B2",
"f+	c #E3D1A9",
"g+	c #AAB9B4",
"h+	c #A3C0C3",
"i+	c #8B9797",
"j+	c #727474",
"k+	c #737776",
"l+	c #98A7A6",
"m+	c #A6BDBC",
"n+	c #CFC09F",
"o+	c #AFA186",
"p+	c #AFA188",
"q+	c #6C6D6F",
"r+	c #515763",
"s+	c #B6AB92",
"t+	c #B8C8C0",
"u+	c #8B9FA3",
"v+	c #757878",
"w+	c #646060",
"x+	c #6C6B6B",
"y+	c #7D8483",
"z+	c #797E7D",
"A+	c #97A6A5",
"B+	c #AEA186",
"C+	c #ADA187",
"D+	c #757573",
"E+	c #6D6E70",
"F+	c #62656A",
"G+	c #5B5F66",
"H+	c #8C8A81",
"I+	c #888B87",
"J+	c #666567",
"K+	c #686666",
"L+	c #6F6F70",
"M+	c #7C8382",
"N+	c #C0B599",
"O+	c #6B6D6F",
"P+	c #6F7171",
"Q+	c #616469",
"R+	c #656466",
"S+	c #6F6F6F",
"T+	c #9AADAC",
"U+	c #606369",
"V+	c #C8BB9D",
"W+	c #FFEAB8",
"X+	c #E3D3AB",
"Y+	c #D0C19F",
"Z+	c #A6BCBB",
"`+	c #ACC5C4",
" @	c #959798",
".@	c #4B4C4C",
"+@	c #727374",
"@@	c #686A6D",
"#@	c #82807A",
"$@	c #CABC9D",
"%@	c #F4E1B3",
"&@	c #F2E0B3",
"*@	c #CDBF9E",
"=@	c #B3A487",
"-@	c #B8A98B",
";@	c #6A6C6F",
">@	c #7E8685",
",@	c #7A7F7E",
"'@	c #96A4A3",
")@	c #ABC4C3",
"!@	c #9CAFAF",
"~@	c #7C8282",
"{@	c #6D6C6C",
"]@	c #8B8C8D",
"^@	c #CACBCB",
"/@	c #676868",
"(@	c #535453",
"_@	c #62656B",
":@	c #999385",
"<@	c #E1D1AA",
"[@	c #EAD7AC",
"}@	c #B2A387",
"|@	c #8E897C",
"1@	c #6D6F70",
"2@	c #6E7070",
"3@	c #797D7C",
"4@	c #A2B5B3",
"5@	c #A8C1C0",
"6@	c #869191",
"7@	c #6C6B6C",
"8@	c #696767",
"9@	c #6C6D6C",
"0@	c #C6C6C7",
"a@	c #9D9E9E",
"b@	c #5C5D5E",
"c@	c #5A5B5A",
"d@	c #6B6C6E",
"e@	c #595D66",
"f@	c #757674",
"g@	c #A39C8A",
"h@	c #7D7B76",
"i@	c #62666C",
"j@	c #717271",
"k@	c #868F8E",
"l@	c #787C7C",
"m@	c #666363",
"n@	c #6C6C6C",
"o@	c #D9DADB",
"p@	c #888889",
"q@	c #565757",
"r@	c #616261",
"s@	c #696B6E",
"t@	c #5D6168",
"u@	c #686667",
"v@	c #606261",
"w@	c #DADADB",
"x@	c #737474",
"y@	c #C1C1C1",
"z@	c #AEAEAF",
"A@	c #656666",
"B@	c #565756",
"C@	c #666767",
"D@	c #ADAEAE",
"E@	c #969797",
"F@	c #CFD0D0",
"G@	c #7F8080",
"H@	c #515352",
"I@	c #626363",
"J@	c #B9BABA",
"K@	c #555655",
"L@	c #B8B8B9",
"                                                                                                ",
"                                                                                                ",
"                                                                                                ",
"                                                                                                ",
"                                                                                                ",
"                                                                                                ",
"                                              . +                                               ",
"                                            @ # $ @                                             ",
"                                        % & * = = * - ;                                         ",
"                                    > , ' ) ! ~ ~ ! { ] ^ /                                     ",
"                                ( _ # : ! ~ ~ ~ ~ ~ ~ ! : # < (                                 ",
"                              [ } | ! = ~ ~ ~ ~ ~ ~ ~ ~ = ! | * 1                               ",
"                          2 3 * 4 ! ~ ~ ~ ~ ~ ~ ~ ~ ~ ~ ~ ~ ! 5 * 6 7                           ",
"                      8 9 $ ) ! 4 ~ ~ ~ ~ ~ ~ ~ ~ ~ ~ ~ ~ ~ ~ 0 = ) $ 5 a                       ",
"                  b c d e f 5 g e h 0 ! ~ ~ ~ ~ ~ ~ ~ ~ i 5 h j k ) l e d m n                   ",
"                o # p = ! h q r s t | q ~ = ~ ~ ~ ~ = = & u v w x e * ~ = p ' y                 ",
"                z $ ! A B C D E E E F G d H = = ~ ! I J K L E E E M N O P ! q Q                 ",
"                R q ~ 6 S E E T U V E E W X J , Y J 0 Z ` E  .U ..E E +.@.5 6 #.                ",
"                R q $.%.&.*.=.-.;.>.U ,.E '.).e u !.~.E E U U {.E ].^./.(._.6 #.                ",
"                R q $.:.<.[.}.|.V -.1.U U E E 2.3.E E 4.U 5.E 6.7.8.9.0.~ P 6 #.                ",
"                R q $.a.b.c.d.e.f.g.h.i...U 4.E E j.U 4.E E k.l.m.n.o.p.$.P 6 #.                ",
"                R q $.a.b.q.r.s.t.u.v.w.-.x.y.4.4.z.E E A.B.C.D.E.F.G.p.$.P 6 #.                ",
"                R q $.a.b.q.r.r.H.r.I.t.J.K.-.L.M.E N.O.P.C.Q.E.R.R.G.p.$.P 6 #.                ",
"                R q $.a.b.q.r.r.r.r.s.S.e.T.U.-.V.W.X.Y.Z.`.R.R.R.R.G.p.$.P 6 #.                ",
"                R q $.a.b.q.r. +.+++r.r.s.}.@+#+$+%+P.E.R.Q.&+*+Q.R.G.p.$.P 6 #.                ",
"                R q $.a.b.q.r.=+-+;+>+,+r.'+)+!+~+{+R.Q.&+]+^+/+*+R.G.p.$.P 6 #.                ",
"                R q $.a.b.q.r.(+_+:+<+[+}+|+1+)+2+3+4+5+F.6+7+8+9+R.G.p.$.P 6 #.                ",
"                R q $.a.b.q.r.0+a+b+c+$.d+.+e+f+g+h+&+i+j+k+7+l+m+R.G.p.$.P 6 #.                ",
"                R q $.a.b.q.r.0+n+o+p+q+r+! s+c.t+u+v+w+x+y+z+A+m+R.G.p.$.P 6 #.                ",
"                R q $.a.b.q.r.0+n+B+C+D+E+F+G+H+I+J+K+L+= M+z+A+m+R.G.p.$.P 6 #.                ",
"                R q $.a.N+q.r.0+n+B+C+D+O+= P+Q+R+A = S+= M+z+A+m+R.G.T+$.P 6 #.                ",
"                R q $.U+V+W+r.X+Y+B+C+D+O+~ ~ ~ ~ ~ ~ S+= M+z+A+Z+R.`+Q.5 P 6 #.                ",
"                 @.@+@@@#@$@%@&@*@=@-@D+;@~ ~ ~ ~ ~ ~ S+= >@,@'@5+)@!@~@{@! $ ]@                ",
"                ^@/@(@Y _@U+:@<@[@}@|@1@2@~ ~ ~ ~ ~ ~ A A 7+3@4@5@6@7@8@9@J ) 0@                ",
"                    a@b@c@d@e@f@g@h@i@2@j@~ ~ ~ ~ ~ ~ ~ ~ _.= k@l@m@n@p | a@                    ",
"                      o@p@q@r@s@t@s@j@~ ~ ~ ~ ~ ~ ~ ~ ~ ~ ~ $.u@x+v@' @ w@                      ",
"                          W x@$ /@! ~ ~ ~ ~ ~ ~ ~ ~ ~ ~ ~ ~ ! /@# +@y@                          ",
"                              z@A@B@4 ! ~ ~ ~ ~ ~ ~ ~ ~ ! 0 ' C@D@                              ",
"                                  E@q p = = ~ ~ ~ ~ = = c@q E@                                  ",
"                                    F@G@H@I@! ~ = ! I@$ G@F@                                    ",
"                                        J@= K@$.$.' ~ L@                                        ",
"                                            7 C@A@7                                             ",
"                                                                                                ",
"                                                                                                ",
"                                                                                                ",
"                                                                                                ",
"                                                                                                ",
"                                                                                                "};
